<svg xmlns="http://www.w3.org/2000/svg" width="139" height="139" viewBox="0 0 139 139" fill="none"><path d="M113.864 55.8317L111.779 50.3875L122.552 46.3334C117.223 34.055 107.725 24.2092 95.7942 18.1859L91.1608 28.495L85.8325 26.0625L90.4658 15.6375C83.9792 13.0892 76.9133 11.5834 69.5 11.5834C63.3608 11.5834 57.4533 12.8575 51.8933 14.4792L55.8317 25.1359L50.3875 27.2209L46.3333 16.4484C34.055 21.7767 24.2092 31.275 18.1858 43.2059L28.495 47.8392L26.0625 53.1675L15.6375 48.5342C13.0892 55.0209 11.5833 62.0867 11.5833 69.5C11.5833 75.6392 12.8575 81.5467 14.4792 87.1067L25.1358 83.1684L27.2208 88.6125L16.4483 92.6667C21.7767 104.945 31.275 114.791 43.2058 120.814L47.8392 110.505L53.1675 112.938L48.5342 123.363C55.0208 125.911 62.0867 127.417 69.5 127.417C75.6392 127.417 81.5467 126.143 87.1067 124.521L83.1683 113.864L88.6125 111.779L92.6667 122.552C104.945 117.223 114.791 107.725 120.814 95.7942L110.505 91.1609L112.938 85.8325L123.362 90.4659C125.911 83.9792 127.417 76.9134 127.417 69.5C127.417 63.3609 126.143 57.4534 124.521 51.8934L113.864 55.8317ZM82.8208 101.586C65.0983 108.883 44.7117 100.543 37.4142 82.8209C30.1167 65.0984 38.4567 44.7117 56.1792 37.4142C73.9017 30.1167 94.2883 38.4567 101.586 56.1792C103.345 60.3916 104.255 64.9099 104.263 69.4749C104.272 74.0398 103.379 78.5615 101.635 82.7804C99.8916 86.9992 97.332 90.8323 94.1034 94.0594C90.8747 97.2866 87.0405 99.8443 82.8208 101.586Z" fill="#F0F0F3"></path></svg>