<svg xmlns="http://www.w3.org/2000/svg" width="131" height="42" viewBox="0 0 131 42" fill="none"><path d="M12.0489 10.9271C12.3483 10.0057 13.6517 10.0057 13.9511 10.9271L15.6942 16.2918C15.828 16.7038 16.212 16.9828 16.6452 16.9828H22.2861C23.2548 16.9828 23.6576 18.2224 22.8738 18.7918L18.3103 22.1074C17.9598 22.362 17.8132 22.8134 17.947 23.2254L19.6902 28.5902C19.9895 29.5115 18.935 30.2776 18.1513 29.7082L13.5878 26.3926C13.2373 26.138 12.7627 26.138 12.4122 26.3926L7.84869 29.7082C7.06498 30.2776 6.0105 29.5115 6.30985 28.5902L8.05296 23.2254C8.18683 22.8134 8.04018 22.362 7.68969 22.1074L3.12616 18.7918C2.34245 18.2224 2.74523 16.9828 3.71395 16.9828H9.35477C9.788 16.9828 10.172 16.7038 10.3058 16.2918L12.0489 10.9271Z" fill="#F0F0F3"></path><path d="M38.0489 10.9271C38.3483 10.0057 39.6517 10.0057 39.9511 10.9271L41.6942 16.2918C41.828 16.7038 42.212 16.9828 42.6452 16.9828H48.2861C49.2548 16.9828 49.6576 18.2224 48.8738 18.7918L44.3103 22.1074C43.9598 22.362 43.8132 22.8134 43.947 23.2254L45.6902 28.5902C45.9895 29.5115 44.935 30.2776 44.1513 29.7082L39.5878 26.3926C39.2373 26.138 38.7627 26.138 38.4122 26.3926L33.8487 29.7082C33.065 30.2776 32.0105 29.5115 32.3098 28.5902L34.053 23.2254C34.1868 22.8134 34.0402 22.362 33.6897 22.1074L29.1262 18.7918C28.3425 18.2224 28.7452 16.9828 29.7139 16.9828H35.3548C35.788 16.9828 36.172 16.7038 36.3058 16.2918L38.0489 10.9271Z" fill="#F0F0F3"></path><path d="M64.5525 10.8081C64.8585 9.90109 66.1415 9.90109 66.4475 10.8081L68.3014 16.3025C68.4386 16.709 68.8198 16.9828 69.2489 16.9828H75.1655C76.1434 16.9828 76.54 18.2416 75.7388 18.8022L71.0179 22.1051C70.6541 22.3596 70.5017 22.8235 70.6436 23.2441L72.462 28.6334C72.7707 29.5481 71.7323 30.3259 70.9413 29.7724L66.0733 26.3666C65.729 26.1258 65.271 26.1258 64.9267 26.3666L60.0587 29.7724C59.2677 30.3259 58.2293 29.5481 58.538 28.6334L60.3564 23.2441C60.4983 22.8235 60.3459 22.3596 59.9821 22.1051L55.2612 18.8022C54.46 18.2416 54.8566 16.9828 55.8345 16.9828H61.7511C62.1802 16.9828 62.5614 16.709 62.6986 16.3025L64.5525 10.8081Z" fill="#F0F0F3"></path><path d="M91.0489 10.9271C91.3483 10.0057 92.6517 10.0057 92.9511 10.9271L94.6942 16.2918C94.828 16.7038 95.212 16.9828 95.6452 16.9828H101.286C102.255 16.9828 102.658 18.2224 101.874 18.7918L97.3103 22.1074C96.9598 22.362 96.8132 22.8134 96.947 23.2254L98.6902 28.5902C98.9895 29.5115 97.935 30.2776 97.1513 29.7082L92.5878 26.3926C92.2373 26.138 91.7627 26.138 91.4122 26.3926L86.8487 29.7082C86.065 30.2776 85.0105 29.5115 85.3098 28.5902L87.053 23.2254C87.1868 22.8134 87.0402 22.362 86.6897 22.1074L82.1262 18.7918C81.3425 18.2224 81.7452 16.9828 82.7139 16.9828H88.3548C88.788 16.9828 89.172 16.7038 89.3058 16.2918L91.0489 10.9271Z" fill="#F0F0F3"></path><path d="M117.049 10.9271C117.348 10.0057 118.652 10.0057 118.951 10.9271L120.694 16.2918C120.828 16.7038 121.212 16.9828 121.645 16.9828H127.286C128.255 16.9828 128.658 18.2224 127.874 18.7918L123.31 22.1074C122.96 22.362 122.813 22.8134 122.947 23.2254L124.69 28.5902C124.99 29.5115 123.935 30.2776 123.151 29.7082L118.588 26.3926C118.237 26.138 117.763 26.138 117.412 26.3926L112.849 29.7082C112.065 30.2776 111.01 29.5115 111.31 28.5902L113.053 23.2254C113.187 22.8134 113.04 22.362 112.69 22.1074L108.126 18.7918C107.342 18.2224 107.745 16.9828 108.714 16.9828H114.355C114.788 16.9828 115.172 16.7038 115.306 16.2918L117.049 10.9271Z" fill="#F0F0F3"></path></svg>