<svg xmlns="http://www.w3.org/2000/svg" width="139" height="139" viewBox="0 0 139 139" fill="none"><path d="M113.864 55.8318L111.779 50.3877L122.552 46.3335C117.223 34.0552 107.725 24.2093 95.7942 18.186L91.1608 28.4952L85.8325 26.0627L90.4658 15.6377C83.9792 13.0893 76.9133 11.5835 69.5 11.5835C63.3608 11.5835 57.4533 12.8577 51.8933 14.4793L55.8317 25.136L50.3875 27.221L46.3333 16.4485C34.055 21.7768 24.2092 31.2752 18.1858 43.206L28.495 47.8393L26.0625 53.1677L15.6375 48.5343C13.0892 55.021 11.5833 62.0868 11.5833 69.5002C11.5833 75.6393 12.8575 81.5468 14.4792 87.1068L25.1358 83.1685L27.2208 88.6127L16.4483 92.6668C21.7767 104.945 31.275 114.791 43.2058 120.814L47.8392 110.505L53.1675 112.938L48.5342 123.363C55.0208 125.911 62.0867 127.417 69.5 127.417C75.6392 127.417 81.5467 126.143 87.1067 124.521L83.1683 113.864L88.6125 111.779L92.6667 122.552C104.945 117.224 114.791 107.725 120.814 95.7943L110.505 91.161L112.938 85.8327L123.363 90.466C125.911 83.9793 127.417 76.9135 127.417 69.5002C127.417 63.361 126.143 57.4535 124.521 51.8935L113.864 55.8318ZM82.8208 101.586C65.0983 108.884 44.7117 100.544 37.4142 82.821C30.1167 65.0985 38.4567 44.7118 56.1792 37.4143C73.9017 30.1168 94.2884 38.4568 101.586 56.1793C103.345 60.3917 104.255 64.9101 104.263 69.475C104.272 74.0399 103.379 78.5616 101.635 82.7805C99.8916 86.9994 97.3321 90.8324 94.1034 94.0595C90.8747 97.2867 87.0405 99.8445 82.8208 101.586Z" fill="#1D2A7B"></path></svg>